<?xml version="1.0" standalone="no"?>
<!DOCTYPE svg PUBLIC "-//W3C//DTD SVG 20010904//EN"
 "http://www.w3.org/TR/2001/REC-SVG-20010904/DTD/svg10.dtd">
<svg version="1.0" xmlns="http://www.w3.org/2000/svg"
 width="300.000000pt" height="300.000000pt" viewBox="0 0 300.000000 300.000000"
 preserveAspectRatio="xMidYMid meet">
<metadata>
Created by potrace 1.14, written by Peter Selinger 2001-2017
</metadata>
<g transform="translate(0.000000,300.000000) scale(0.100000,-0.100000)"
fill="#000000" stroke="none">
<path d="M0 2415 l0 -585 30 0 c17 0 30 -4 30 -10 0 -17 97 -12 115 6 23 23
143 31 151 9 7 -17 34 -21 34 -4 0 5 4 8 9 4 5 -3 13 0 17 6 4 7 3 9 -4 5 -6
-3 -13 -2 -17 4 -3 5 2 10 12 10 491 5 551 4 567 -9 9 -7 16 -9 16 -4 0 8 20
13 67 16 12 0 20 4 17 8 -2 4 3 10 12 13 12 4 15 2 10 -9 -3 -8 -1 -15 4 -15
6 0 10 10 10 22 0 21 0 21 18 2 9 -11 24 -18 33 -17 9 2 22 -4 30 -13 12 -15
12 -16 -10 -9 -26 8 -41 -7 -34 -35 3 -11 13 -16 31 -15 15 1 35 -2 45 -7 11
-5 17 -5 17 2 0 9 -22 15 -43 11 -5 -1 -6 3 -2 8 3 6 12 8 20 5 33 -13 32 9
-2 39 -70 61 -183 181 -183 194 0 7 -4 13 -10 13 -5 0 -10 16 -10 35 0 19 -7
53 -16 75 -27 66 0 164 74 275 74 110 138 156 262 189 l45 12 3 177 2 177
-675 0 -675 0 0 -585z m1153 -600 c-3 -9 -8 -14 -10 -11 -3 3 -2 9 2 15 9 16
15 13 8 -4z"/>
<path d="M1441 2830 l0 -171 25 -9 c14 -6 36 -10 48 -10 42 0 148 -62 211
-124 91 -90 121 -189 100 -338 -8 -63 -25 -79 -25 -25 0 26 -12 46 -51 90 -42
47 -56 57 -83 57 -35 0 -61 -18 -89 -62 -10 -17 -13 -29 -7 -33 6 -4 7 -11 4
-17 -4 -7 -2 -8 4 -4 6 3 16 -2 21 -13 13 -24 14 -34 2 -27 -4 3 -7 -6 -5 -20
2 -20 -1 -24 -14 -20 -16 6 -15 5 0 -7 9 -8 17 -22 16 -33 0 -10 3 -38 6 -61
5 -37 3 -44 -20 -62 -60 -47 -155 -31 -176 31 -6 16 -14 28 -19 28 -18 0 -9
-49 14 -75 25 -30 88 -43 150 -31 43 8 117 77 117 108 0 19 2 20 11 8 8 -11
12 -12 16 -2 2 6 9 9 15 6 5 -3 16 3 24 14 15 22 51 23 46 1 -8 -41 -28 -69
-71 -104 -34 -26 -47 -43 -43 -54 5 -14 4 -14 -12 -2 -12 10 -20 11 -27 4 -8
-8 -5 -13 9 -17 10 -4 39 -24 63 -46 30 -27 47 -36 55 -29 7 5 26 11 43 12 17
1 31 6 31 10 0 5 5 5 10 2 6 -4 7 -11 4 -17 -4 -7 -2 -8 5 -4 6 4 8 12 5 18
-4 6 -1 8 7 6 8 -3 13 -11 11 -17 -1 -7 2 -10 8 -6 6 3 8 10 5 14 -2 5 6 9 20
9 l24 0 -22 -19 c-12 -11 -16 -18 -8 -17 7 2 15 -2 18 -8 5 -14 -35 -26 -43
-13 -3 5 -18 8 -32 7 -17 -2 -26 1 -25 10 2 6 -6 12 -17 12 -14 0 -18 -5 -13
-17 4 -11 3 -14 -5 -9 -7 4 -12 2 -12 -4 0 -7 8 -9 23 -4 12 3 19 3 15 -1 -4
-5 0 -14 9 -20 14 -10 22 -10 40 2 23 15 32 6 13 -13 -8 -8 -6 -15 4 -23 10
-8 16 -9 21 -1 3 5 3 10 -1 10 -4 0 1 7 12 16 10 8 14 13 7 10 -6 -4 -14 -2
-17 3 -4 5 2 8 11 6 10 -1 25 3 33 9 13 9 13 9 2 -6 -10 -13 -10 -17 0 -21 10
-4 10 -6 0 -6 -10 -1 -9 -5 3 -17 10 -10 13 -24 9 -38 -7 -21 -6 -21 15 -2 11
11 21 25 21 33 0 7 7 16 15 19 8 4 13 9 11 13 -3 4 0 13 5 21 8 12 9 11 7 -4
-2 -10 3 -21 11 -24 10 -3 12 0 8 11 -10 26 24 13 50 -19 12 -16 23 -25 23
-21 0 4 10 2 23 -4 20 -11 21 -11 8 4 -7 10 -9 17 -3 17 13 0 24 -29 15 -42
-3 -6 -1 -8 4 -5 6 4 13 -2 16 -13 5 -19 14 -20 129 -20 l124 0 44 -45 c42
-43 44 -44 57 -25 8 11 20 18 26 14 7 -3 3 1 -7 10 -17 14 -17 16 -3 22 9 3
14 11 11 18 -3 7 2 13 9 13 15 0 17 -14 4 -34 -4 -6 -2 -15 4 -19 7 -4 9 -3 5
4 -3 6 -2 13 4 17 6 4 8 11 5 16 -4 5 -1 9 5 9 6 0 9 4 5 9 -3 5 0 13 7 17 7
4 10 4 6 -1 -4 -4 -2 -15 5 -23 8 -11 8 -14 0 -9 -13 8 -12 -18 2 -30 4 -4 5
-3 1 4 -3 6 -2 14 3 18 5 3 8 14 6 24 -2 10 3 18 11 18 10 0 11 -4 4 -11 -6
-6 -5 -15 6 -27 23 -25 11 -48 -24 -47 -16 1 -34 -2 -41 -6 -14 -9 -15 -26 0
-26 5 0 7 6 3 13 -4 6 2 3 14 -7 12 -11 22 -16 22 -11 0 4 6 3 13 -2 6 -5 25
-8 42 -7 22 2 26 1 15 -6 -16 -10 -12 -12 34 -14 16 -1 31 -7 34 -14 3 -9 8
-8 17 5 13 17 14 17 30 -2 16 -20 16 -19 10 5 -5 21 -3 19 16 -10 13 -19 23
-39 24 -45 0 -5 6 -9 13 -8 7 2 9 -4 5 -14 -6 -14 -8 -14 -20 3 -7 10 -13 13
-13 7 0 -5 9 -18 21 -29 17 -16 22 -16 29 -4 6 8 10 20 10 26 0 16 28 13 34
-3 3 -8 1 -11 -4 -8 -6 3 -7 -1 -4 -10 5 -12 9 -13 21 -4 8 7 13 8 11 3 -3 -9
4 -14 22 -14 7 0 10 277 10 810 l0 810 -780 0 -779 0 0 -170z m212 -615 c-3
-8 -9 -15 -14 -15 -10 0 -12 24 -3 33 11 11 24 -3 17 -18z m97 -403 c0 -13
-12 -22 -22 -16 -10 6 -1 24 13 24 5 0 9 -4 9 -8z m204 -24 c-3 -5 -11 -5 -17
-1 -7 4 -6 0 2 -10 15 -19 2 -24 -16 -6 -8 8 -7 16 6 28 15 16 36 7 25 -11z
m21 15 c-1 -10 3 -24 9 -32 8 -11 8 -13 -1 -7 -8 4 -13 2 -13 -6 0 -10 -3 -9
-9 2 -6 8 -7 19 -3 25 4 5 7 13 8 18 3 14 4 17 8 17 2 0 3 -8 1 -17z m435
-128 c6 -4 17 -2 24 4 9 8 13 7 13 -4 0 -8 -4 -12 -9 -9 -4 3 -8 1 -8 -5 0 -5
6 -11 13 -14 6 -2 -32 -5 -86 -5 -71 0 -97 3 -94 11 2 7 22 12 46 11 28 0 41
3 41 13 0 13 37 12 60 -2z m533 -213 c15 -16 15 -19 2 -19 -8 0 -13 3 -10 5 3
3 0 11 -6 19 -17 20 -5 16 14 -5z"/>
<path d="M1317 2253 c-21 -24 -33 -73 -18 -73 6 0 15 10 20 23 22 56 79 60
109 7 9 -17 23 -30 30 -30 21 0 13 40 -13 65 -30 31 -103 35 -128 8z"/>
<path d="M397 1841 c-4 -17 -3 -21 5 -13 5 5 8 16 6 23 -3 8 -7 3 -11 -10z"/>
<path d="M420 1844 c0 -16 27 -37 33 -27 3 5 2 15 -4 23 -7 13 -9 13 -9 0 0
-13 -1 -13 -10 0 -5 8 -10 10 -10 4z"/>
<path d="M470 1836 c12 -12 110 -17 110 -5 0 4 -8 6 -17 4 -10 -1 -22 0 -28 4
-18 10 -76 8 -65 -3z"/>
<path d="M593 1837 c-3 -5 -2 -11 1 -14 3 -4 6 -1 6 6 0 7 5 9 10 6 6 -4 8
-11 5 -16 -3 -5 1 -6 9 -3 9 3 16 10 16 14 0 9 19 8 36 -2 6 -4 11 -2 11 5 0
14 -85 18 -94 4z"/>
<path d="M1080 1840 c0 -5 5 -10 10 -10 6 0 10 5 10 10 0 6 -4 10 -10 10 -5 0
-10 -4 -10 -10z"/>
<path d="M1248 1813 c7 -3 16 -2 19 1 4 3 -2 6 -13 5 -11 0 -14 -3 -6 -6z"/>
<path d="M1092 1748 c-14 -14 -16 -28 -3 -28 5 0 11 9 14 20 6 23 5 24 -11 8z"/>
<path d="M1123 1725 c0 -8 4 -12 9 -9 5 3 6 10 3 15 -9 13 -12 11 -12 -6z"/>
<path d="M2065 1707 c1 -12 6 -21 11 -20 15 3 15 19 1 31 -11 9 -13 7 -12 -11z"/>
<path d="M2017 1678 c16 -18 16 -18 0 -12 -9 3 -17 1 -17 -4 0 -13 36 -26 49
-17 6 3 14 -3 20 -12 5 -10 13 -14 18 -10 11 11 -27 38 -41 30 -7 -4 -6 -1 1
8 8 9 9 20 3 29 -7 10 -10 11 -10 3 0 -7 -5 -13 -11 -13 -5 0 -8 4 -5 8 3 5
-1 9 -9 9 -12 0 -12 -4 2 -19z"/>
<path d="M1971 1636 c-9 -11 -3 -21 31 -50 39 -34 44 -36 55 -20 16 22 17 44
2 44 -6 0 -22 9 -36 20 -30 24 -37 24 -52 6z m79 -65 c0 -11 -4 -10 -15 5 -8
10 -14 26 -14 34 0 11 3 10 14 -4 8 -11 15 -27 15 -35z"/>
<path d="M2643 1585 c0 -8 4 -12 9 -9 5 3 6 10 3 15 -9 13 -12 11 -12 -6z"/>
<path d="M2604 1501 c1 -16 5 -33 10 -38 5 -5 6 -2 1 6 -5 9 -3 12 6 9 8 -3
13 -12 11 -19 -2 -9 3 -7 16 4 13 12 22 15 27 7 3 -5 12 -7 18 -3 20 12 38 12
34 0 -3 -7 -10 -11 -16 -9 -7 1 -10 -2 -6 -8 5 -8 11 -7 21 1 8 6 14 7 14 2 0
-4 27 -9 60 -9 50 -1 58 1 49 13 -7 7 -14 11 -17 8 -3 -3 -13 2 -23 11 -16 14
-18 14 -24 -7 l-7 -22 -15 24 -14 24 5 -25 5 -25 -19 25 c-11 14 -20 21 -20
16 0 -4 -12 -1 -26 9 -14 9 -28 14 -31 11 -4 -3 -13 0 -21 7 -13 10 -15 9 -10
-11 4 -12 2 -20 -3 -16 -5 3 -9 11 -9 19 0 8 -4 16 -9 19 -5 3 -8 -7 -7 -23z
m83 -21 c4 -13 3 -13 -5 -1 -8 11 -14 12 -25 3 -11 -9 -14 -9 -14 2 0 18 39
15 44 -4z m127 -18 c3 -5 -1 -9 -9 -9 -8 0 -12 4 -9 9 3 4 7 8 9 8 2 0 6 -4 9
-8z"/>
</g>
</svg>
